<?xml version="1.0" standalone="no"?>
<!DOCTYPE svg PUBLIC "-//W3C//DTD SVG 20010904//EN"
 "http://www.w3.org/TR/2001/REC-SVG-20010904/DTD/svg10.dtd">
<svg version="1.0" xmlns="http://www.w3.org/2000/svg"
 width="32" height="32" viewBox="0 0 512.000000 512.000000"
 preserveAspectRatio="xMidYMid meet">

<g transform="translate(0.000000,512.000000) scale(0.100000,-0.100000)"
fill="#000000" stroke="none">
<path d="M2200 5105 c-107 -33 -177 -133 -188 -267 l-7 -80 -97 -29 c-155 -46
-368 -138 -484 -209 l-30 -19 -40 40 c-64 66 -116 91 -199 97 -124 8 -151 -10
-407 -266 -256 -256 -274 -283 -266 -407 6 -83 31 -135 96 -199 l40 -39 -34
-61 c-76 -133 -148 -303 -193 -454 l-29 -97 -80 -7 c-136 -11 -235 -82 -267
-192 -22 -72 -22 -640 0 -712 32 -110 131 -181 267 -192 l80 -7 29 -97 c45
-151 117 -321 193 -454 l34 -61 -40 -39 c-65 -64 -90 -116 -96 -199 -8 -124
10 -151 266 -407 256 -256 283 -274 407 -266 83 6 135 31 199 97 l40 40 30
-19 c116 -71 329 -163 484 -209 l97 -29 7 -80 c11 -136 82 -235 192 -267 72
-22 640 -22 712 0 110 32 181 131 192 267 l7 80 97 29 c154 46 369 139 482
208 l32 20 40 -40 c64 -66 116 -91 199 -97 124 -8 151 10 407 266 256 256 274
283 266 407 -6 83 -31 135 -97 199 l-40 40 18 30 c72 117 164 331 210 484 l29
97 80 7 c136 11 235 82 267 192 22 72 22 640 0 712 -32 110 -131 181 -267 192
l-80 7 -29 97 c-45 151 -117 321 -193 454 l-34 61 40 39 c65 64 90 116 96 199
8 124 -10 151 -266 407 -256 256 -283 274 -407 266 -83 -6 -135 -31 -199 -96
l-39 -40 -61 34 c-133 76 -303 148 -454 193 l-97 29 -7 80 c-11 136 -82 235
-192 267 -70 21 -649 20 -716 0z m681 -204 c22 -18 24 -28 29 -145 4 -109 8
-128 25 -146 14 -13 69 -33 155 -56 194 -51 352 -117 526 -220 130 -77 143
-76 249 26 124 119 104 126 362 -132 259 -259 252 -239 133 -363 -72 -75 -80
-87 -80 -122 0 -26 10 -55 28 -84 105 -166 194 -371 246 -569 23 -86 43 -141
56 -155 18 -17 37 -21 146 -25 178 -7 164 22 164 -350 0 -372 14 -343 -164
-350 -109 -4 -128 -8 -146 -25 -13 -14 -33 -69 -56 -155 -52 -198 -141 -403
-246 -569 -18 -29 -28 -58 -28 -84 0 -35 8 -47 80 -122 119 -124 126 -104
-132 -362 -259 -259 -239 -252 -363 -133 -106 102 -119 103 -249 26 -174 -103
-332 -169 -526 -220 -86 -23 -141 -43 -155 -56 -17 -18 -21 -37 -25 -146 -7
-178 22 -164 -350 -164 -372 0 -343 -14 -350 164 -6 152 -10 158 -126 187
-212 53 -385 123 -559 224 -154 89 -162 89 -270 -15 -124 -119 -104 -126 -362
132 -259 259 -252 239 -133 363 72 75 80 87 80 122 0 26 -10 55 -28 84 -105
166 -194 371 -246 569 -23 86 -43 141 -56 155 -18 17 -37 21 -146 25 -178 7
-164 -22 -164 350 0 372 -14 343 164 350 110 4 128 8 146 26 13 13 33 67 55
151 49 189 118 355 221 529 77 130 76 143 -26 249 -119 124 -126 104 132 362
259 259 239 252 363 133 108 -104 116 -104 270 -15 174 101 347 171 559 224
116 29 120 35 126 187 7 178 -22 164 350 164 278 0 299 -1 321 -19z"/>
<path d="M2393 4300 c-484 -51 -917 -291 -1215 -675 -436 -560 -485 -1336
-123 -1950 144 -245 374 -475 620 -620 617 -364 1397 -312 1960 130 92 72 250
232 318 321 253 334 385 782 348 1187 -40 436 -203 791 -504 1095 -262 266
-583 431 -960 497 -111 19 -336 26 -444 15z m422 -215 c592 -97 1083 -543
1238 -1125 38 -142 51 -240 51 -400 0 -160 -13 -258 -51 -400 -158 -592 -661
-1041 -1268 -1131 -115 -17 -335 -17 -450 0 -671 100 -1205 634 -1306 1306
-17 115 -17 335 0 450 70 463 347 871 756 1113 158 93 377 169 550 191 50 6
101 13 115 15 46 8 274 -3 365 -19z"/>
<path d="M2727 3748 c-21 -20 -847 -1221 -906 -1318 -29 -48 -27 -83 8 -122
l29 -33 267 -3 266 -3 -5 -27 c-3 -15 -29 -201 -57 -414 -57 -425 -57 -433 2
-463 34 -18 60 -19 93 -3 18 8 149 204 443 666 230 361 426 669 435 686 9 17
17 43 18 58 0 34 -43 85 -78 92 -15 3 -112 2 -217 -2 -104 -5 -191 -7 -193 -6
-2 1 11 188 28 415 34 450 33 456 -21 484 -41 22 -84 19 -112 -7z m-87 -733
c-11 -152 -18 -285 -15 -295 3 -11 20 -31 38 -46 l31 -26 170 7 170 7 -15 -23
c-9 -13 -118 -185 -244 -382 -125 -197 -229 -356 -231 -355 -1 2 11 98 26 213
37 262 37 286 6 322 l-24 28 -230 5 -230 5 281 412 c155 226 283 410 285 408
2 -1 -6 -127 -18 -280z"/>
</g>
</svg>
